<?xml version="1.0" encoding="iso-8859-1"?>
<!DOCTYPE svg PUBLIC "-//W3C//DTD SVG 1.0//EN" "http://www.w3.org/TR/2001/REC-SVG-20010904/DTD/svg10.dtd">
<!-- Creator: CorelDRAW -->
<svg xmlns="http://www.w3.org/2000/svg" xmlns:odm="http://product.corel.com/CGS/11/cddns/" xml:space="preserve" width="64.3mm" height="64.3mm" style="shape-rendering:geometricPrecision; text-rendering:geometricPrecision; image-rendering:optimizeQuality; fill-rule:evenodd"
     viewBox="0 0 64300 64300">
 <defs>
  <style type="text/css">
   <![CDATA[
    .str1 {stroke:#28166F;stroke-width:1411}
    .str3 {stroke:#495677;stroke-width:1411}
    .str5 {stroke:#605D5C;stroke-width:1411}
    .str4 {stroke:#DA251D;stroke-width:1411}
    .str2 {stroke:#495677;stroke-width:2822}
    .str0 {stroke:#DA251D;stroke-width:2822}
    .fil7 {fill:none}
    .fil3 {fill:#007CC3}
    .fil1 {fill:#0093DD}
    .fil6 {fill:#495677}
    .fil2 {fill:#75C5F0}
    .fil0 {fill:#C2C1C1}
    .fil8 {fill:#DA251D}
    .fil4 {fill:#FFFFFF}
    .fil5 {fill:#1E3582}
    .fil9 {fill:url(#id1)}
   ]]>
  </style>
  <linearGradient id="id1" gradientUnits="userSpaceOnUse" x1="48041" y1="21655" x2="59797" y2="21655">
   <stop offset="0" style="stop-color:#605D5C"/>
   <stop offset="1" style="stop-color:#FFFFFF"/>
  </linearGradient>
 </defs>
 <g id="Layer 1">
  <defs>
   <clipPath id="id0">
    <path d="M36302 9204c-2726,10122 -7164,32342 -10744,41981l4969 -4687c2701,-4490 4797,-8981 6477,-13471 1624,-7179 1806,-22110 -702,-23823z"/>
   </clipPath>
  </defs>
  <path class="fil0 str0" d="M26163 52684l-12728 -34230 23772 -7097 5554 9976 -4318 26088 -12280 5263z"/>
  <path class="fil1 str1" d="M12954 12704c-3383,424 -7110,1156 -8600,3895 -1139,2094 -2056,5907 -1288,9450 217,1004 646,1962 934,2968 3383,11802 5436,16738 21432,16738 2413,0 5688,-1206 7756,-1206 3620,0 9396,1910 8273,-4826 -256,-1540 -3221,-9570 -3274,-11031 -172,-4653 -2198,-11865 -7240,-14650 -3720,-2056 -6004,-2487 -8068,-2404 -3256,131 -6672,657 -9925,1066z"/>
  <path class="fil2" d="M19019 24670c5021,-2844 7038,-7247 4493,-9801 -2546,-2554 -8716,-2316 -13736,529 -5020,2844 -7038,7247 -4493,9801 2546,2554 8716,2316 13736,-529z"/>
  <ellipse class="fil3" cx="24751" cy="40666" rx="13262" ry="4048"/>
  <path class="fil4" d="M13795 35738l0 -4395 1833 0c281,1389 936,2430 1975,3116 1039,686 2478,1029 4315,1029 1493,0 2630,-246 3409,-732 778,-487 1167,-1203 1167,-2147 0,-745 -266,-1321 -793,-1735 -532,-415 -1621,-801 -3276,-1156l-3231 -682c-2108,-461 -3591,-1105 -4443,-1926 -857,-821 -1286,-1994 -1286,-3513 0,-1838 710,-3264 2128,-4285 1419,-1020 3409,-1532 5970,-1532 1261,0 2572,89 3931,271 1360,182 2773,457 4236,821l0 4090 -1832 0c-281,-1275 -892,-2206 -1832,-2799 -946,-588 -2286,-884 -4030,-884 -1423,0 -2497,211 -3226,639 -724,423 -1089,1058 -1089,1901 0,770 251,1354 749,1756 502,402 1729,817 3680,1245l3231 681c2005,432 3453,1101 4354,2011 902,910 1350,2164 1350,3759 0,1872 -749,3290 -2251,4264 -1502,969 -3709,1456 -6625,1456 -1404,0 -2798,-102 -4187,-309 -1384,-208 -2793,-521 -4227,-944z"/>
  <g style="clip-path:url(#id0)">
   <path class="fil5" d="M158 -16196l63451 0 0 92781 -63451 0 0 -92781z"/>
   <g id="Layer 1">
    <path class="fil6 str2" d="M26163 52684l-12728 -34230 23772 -7097 5554 9976 -4318 26088 -12280 5263z"/>
    <path class="fil6 str3" d="M12954 12704c-3383,424 -7110,1156 -8600,3895 -1139,2094 -2056,5907 -1288,9450 217,1004 646,1962 934,2968 3383,11802 5436,16738 21432,16738 2413,0 5688,-1206 7756,-1206 3620,0 9396,1910 8273,-4826 -256,-1540 -3221,-9570 -3274,-11031 -172,-4653 -2198,-11865 -7240,-14650 -3720,-2056 -6004,-2487 -8068,-2404 -3256,131 -6672,657 -9925,1066z"/>
    <path class="fil6" d="M19019 24670c5021,-2844 7038,-7247 4493,-9801 -2546,-2554 -8716,-2316 -13736,529 -5020,2844 -7038,7247 -4493,9801 2546,2554 8716,2316 13736,-529z"/>
    <path class="fil6" d="M24751 44714c7305,0 13262,-1819 13262,-4048 0,-2230 -5957,-4049 -13262,-4049 -7304,0 -13262,1819 -13262,4049 0,2229 5958,4048 13262,4048z"/>
    <path class="fil6" d="M13795 35738l0 -4395 1833 0c281,1389 936,2430 1975,3116 1039,686 2478,1029 4315,1029 1493,0 2630,-246 3409,-732 778,-487 1167,-1203 1167,-2147 0,-745 -266,-1321 -793,-1735 -532,-415 -1621,-801 -3276,-1156l-3231 -682c-2108,-461 -3591,-1105 -4443,-1926 -857,-821 -1286,-1994 -1286,-3513 0,-1838 710,-3264 2128,-4285 1419,-1020 3409,-1532 5970,-1532 1261,0 2572,89 3931,271 1360,182 2773,457 4236,821l0 4090 -1832 0c-281,-1275 -892,-2206 -1832,-2799 -946,-588 -2286,-884 -4030,-884 -1423,0 -2497,211 -3226,639 -724,423 -1089,1058 -1089,1901 0,770 251,1354 749,1756 502,402 1729,817 3680,1245l3231 681c2005,432 3453,1101 4354,2011 902,910 1350,2164 1350,3759 0,1872 -749,3290 -2251,4264 -1502,969 -3709,1456 -6625,1456 -1404,0 -2798,-102 -4187,-309 -1384,-208 -2793,-521 -4227,-944z"/>
   </g>
  </g>
  <path class="fil7" d="M36302 9204c-2726,10122 -7164,32342 -10744,41981l4969 -4687c2701,-4490 4797,-8981 6477,-13471 1624,-7179 1806,-22110 -702,-23823z"/>
  <path class="fil4 str4" d="M37184 9638c2864,19806 -1964,33629 -12054,43360l25008 7556c9292,-12706 13490,-26979 12594,-42820l-25548 -8096z"/>
  <path class="fil7 str0" d="M49778 60374l-4661 -16808 7884 -4925 -4120 -8182 12382 -10781c1952,16505 -897,28895 -11485,40696z"/>
  <path class="fil8" d="M62912 17734l-26180 -8412 -5792 2879 2879 -1436 2714 -1315 25659 10983 720 -2699z"/>
  <path class="fil8" d="M50138 60374l-25407 -7099 -1138 -5679 2451 29 1245 3394 23389 6837 -540 2518z"/>
  <path class="fil8" d="M28773 52372l26942 -10752 -3286 -2494 327 -123 -22049 7898 -3980 4735 2046 736z"/>
  <path class="fil8" d="M42520 11488l11389 23359 2408 7575 -5086 -2810 -13211 -21771 -828 -7975 5328 1622z"/>
  <path class="fil4 str5" d="M4854 9509c2388,-4534 5851,-8210 14068,-8444 10273,693 15181,2978 21632,10410l6567 -7966 2368 30034 -21960 -14640 6587 -1154c-1851,-3362 -3270,-6553 -6451,-9194 -2464,-2045 -11277,-3383 -14099,1839 -3929,13930 -12786,6854 -8712,-885z"/>
  <path class="fil9" d="M59797 19010l-11756 -4702 1764 14695 9992 -9993z"/>
 </g>
</svg>
